<svg id="aac23620-7a79-4cdc-8af9-5908d9c2bd3d" data-name="Layer 3" xmlns="http://www.w3.org/2000/svg" viewBox="0 0 882.13 492.41"><defs><style>.bca62e97-af43-4b3f-95de-644ca272706e{font-size:142.14px;font-family:Montserrat-Black, Montserrat;font-weight:800;}.a93a7021-0c6f-420a-b186-5aa15507299c{letter-spacing:-0.01em;}.b96671c7-5e59-441f-b268-b72487ed32df{font-size:401.7px;fill:#55b7fe;font-family:DiettersenFree-Regular, Diettersen Free;}</style></defs><title>questNutri</title><path d="M243,341.57a111.44,111.44,0,1,1-78.8,32.64A110.72,110.72,0,0,1,243,341.57m0-39A150.44,150.44,0,1,0,393.41,453,150.44,150.44,0,0,0,243,302.57Z" transform="translate(-92.52 -302.57)"/><path d="M265.25,530.1c14.56,8.37-47.1,23.21-88.81-31.29C159,476,159,445.34,171.81,443.48,201.13,438.94,187.19,499.07,265.25,530.1Z" transform="translate(-92.52 -302.57)"/><text class="bca62e97-af43-4b3f-95de-644ca272706e" transform="translate(305.66 211.51)">UE<tspan class="a93a7021-0c6f-420a-b186-5aa15507299c" x="207.1" y="0">S</tspan><tspan x="299.06" y="0">T</tspan></text><text class="b96671c7-5e59-441f-b268-b72487ed32df" transform="translate(301.33 437.11) rotate(-4.84) scale(1.03 1)">Nutri</text><path d="M440.86,645.3a32,32,0,0,0,19.06-11.06l.56-.68a32.07,32.07,0,0,0,1.8-38.6q-2.75,6.69-6.16,14.44-5.92,13.41-12.46,29.08Q442.23,641.9,440.86,645.3Z" transform="translate(-92.52 -302.57)"/><path d="M422.12,643q4.15-10.8,8.72-21.35,7.46-17.16,12.68-28.89,2.7-5.9,4.86-11L388.51,532a30.75,30.75,0,0,0-2.87-2.12,162.64,162.64,0,0,1-41.39,49.61,30.55,30.55,0,0,0,2.68,2.52l67.81,56.39A32.4,32.4,0,0,0,422.12,643Z" transform="translate(-92.52 -302.57)"/></svg>