<svg xmlns="http://www.w3.org/2000/svg" viewBox="0 0 882.13 492.41"><defs><style>.fdb1f440-7d9f-4979-9e10-e67a44ef562f{font-size:142.14px;font-family:Montserrat-Black, Montserrat;font-weight:800;}.ba96e2de-d845-405b-9d70-5899b1d84d27{letter-spacing:-0.01em;}.af9548d1-9007-4f61-aaa1-5688b63994e1{font-size:401.7px;fill:#55b7fe;font-family:DiettersenFree-Regular, Diettersen Free;}</style></defs><title>Asset 3</title><g id="ae823e3a-bbc0-455b-b411-10283f9a30cd" data-name="Layer 2"><g id="b52c4f17-f5aa-4254-bc39-da7840bfa81f" data-name="Layer 3"><path d="M150.44,39a111.43,111.43,0,0,1,78.8,190.24A111.44,111.44,0,1,1,150.44,39m0-39A150.45,150.45,0,1,0,300.89,150.44,150.45,150.45,0,0,0,150.44,0Z"/><path d="M172.73,227.53c14.56,8.37-47.11,23.21-88.81-31.29-17.4-22.77-17.4-53.47-4.63-55.33C108.61,136.37,94.67,196.5,172.73,227.53Z"/><text class="fdb1f440-7d9f-4979-9e10-e67a44ef562f" transform="translate(305.66 211.51)">UE<tspan class="ba96e2de-d845-405b-9d70-5899b1d84d27" x="207.1" y="0">S</tspan><tspan x="299.06" y="0">T</tspan></text><text class="af9548d1-9007-4f61-aaa1-5688b63994e1" transform="translate(301.33 437.11) rotate(-4.84) scale(1.03 1)">Nutri</text><path d="M348.34,342.73a31.86,31.86,0,0,0,19.05-11.06L368,331a32.07,32.07,0,0,0,1.8-38.6q-2.75,6.69-6.16,14.45-5.93,13.4-12.46,29.07Q349.72,339.33,348.34,342.73Z"/><path d="M329.59,340.4q4.17-10.8,8.73-21.35,7.46-17.15,12.68-28.89c1.8-3.93,3.42-7.57,4.86-11L296,229.43a32.13,32.13,0,0,0-2.87-2.12,162.64,162.64,0,0,1-41.39,49.61,30.55,30.55,0,0,0,2.68,2.52l67.81,56.39A32.34,32.34,0,0,0,329.59,340.4Z"/></g></g></svg>